<?xml version="1.0" encoding="utf-8"?>
<!-- Generator: Adobe Illustrator 26.3.1, SVG Export Plug-In . SVG Version: 6.00 Build 0)  -->
<svg version="1.1" id="レイヤー_1" xmlns="http://www.w3.org/2000/svg" xmlns:xlink="http://www.w3.org/1999/xlink" x="0px"
	 y="0px" viewBox="0 0 320.9 384" style="enable-background:new 0 0 320.9 384;" xml:space="preserve">
<path d="M311.5,70.6L250.2,9.4c-6-6-14.1-9.4-22.6-9.4H64C28.6,0,0,28.7,0,64l0,256c0.9,35.4,29.6,64,64.9,64h192
	c35.2,0,64-28.8,64-64V93.2C320.9,84.8,317.5,76.6,311.5,70.6z M276.7,324.3c0,9.1-7.4,16.5-16.5,16.5H60.8
	c-9.1,0-16.5-7.4-16.5-16.5V59.8c0-9.1,7.4-16.5,16.5-16.5h132.3l0.9,49.5c0,18.3,14.8,33.1,33.1,33.1h49.6V324.3L276.7,324.3z"/>
</svg>
